<svg width="50" height="50" viewBox="0 0 50 50" fill="none" xmlns="http://www.w3.org/2000/svg">
<rect width="50" height="50" rx="25" fill="#DFDFDF"/>
<path d="M20.1355 32V18H25.5055C26.2655 18 26.9522 18.19 27.5655 18.57C28.1789 18.95 28.6655 19.46 29.0255 20.1C29.3855 20.7333 29.5655 21.4367 29.5655 22.21C29.5655 22.8433 29.4489 23.4267 29.2155 23.96C28.9889 24.4867 28.6689 24.9433 28.2555 25.33C27.8489 25.7167 27.3789 26.01 26.8455 26.21L30.1955 32H27.3855L24.1455 26.43H22.5755V32H20.1355ZM22.5755 23.99H25.2255C25.5722 23.99 25.8889 23.9033 26.1755 23.73C26.4622 23.5567 26.6922 23.3233 26.8655 23.03C27.0389 22.7367 27.1255 22.41 27.1255 22.05C27.1255 21.6833 27.0389 21.3533 26.8655 21.06C26.6922 20.7667 26.4622 20.5333 26.1755 20.36C25.8889 20.1867 25.5722 20.1 25.2255 20.1H22.5755V23.99Z" fill="#030306"/>
</svg>
